<svg xmlns="http://www.w3.org/2000/svg" xmlns:xlink="http://www.w3.org/1999/xlink" width="500" zoomAndPan="magnify" viewBox="0 0 375 374.999991" height="500" preserveAspectRatio="xMidYMid meet" version="1.0"><defs><clipPath id="3b85fa7f90"><path d="M 131.25 131.25 L 243.75 131.25 L 243.75 243.75 L 131.25 243.75 Z M 131.25 131.25 " clip-rule="nonzero"/></clipPath><clipPath id="8897da7163"><path d="M 187.5 131.25 C 156.433594 131.25 131.25 156.433594 131.25 187.5 C 131.25 218.566406 156.433594 243.75 187.5 243.75 C 218.566406 243.75 243.75 218.566406 243.75 187.5 C 243.75 156.433594 218.566406 131.25 187.5 131.25 " clip-rule="nonzero"/></clipPath><clipPath id="3889753cc9"><path d="M 164 167 L 211 167 L 211 208 L 164 208 Z M 164 167 " clip-rule="nonzero"/></clipPath><clipPath id="1df34c84ef"><path d="M 170.261719 161.378906 L 212.972656 169.625 L 204.441406 213.808594 L 161.730469 205.5625 Z M 170.261719 161.378906 " clip-rule="nonzero"/></clipPath><clipPath id="ca93068b1b"><path d="M 170.261719 161.378906 L 212.972656 169.625 L 204.441406 213.808594 L 161.730469 205.5625 Z M 170.261719 161.378906 " clip-rule="nonzero"/></clipPath><clipPath id="7056247331"><path d="M 170.261719 161.378906 L 212.972656 169.625 L 204.441406 213.808594 L 161.730469 205.5625 Z M 170.261719 161.378906 " clip-rule="nonzero"/></clipPath></defs><rect x="-37.5" width="450" fill="#ffffff" y="-37.499999" height="449.999989" fill-opacity="1"/><rect x="-37.5" width="450" fill="#ffffff" y="-37.499999" height="449.999989" fill-opacity="1"/><rect x="-37.5" width="450" fill="#ffffff" y="-37.499999" height="449.999989" fill-opacity="1"/><g clip-path="url(#3b85fa7f90)"><g clip-path="url(#8897da7163)"><path fill="#ffe84d" d="M 131.25 131.25 L 243.75 131.25 L 243.75 243.75 L 131.25 243.75 Z M 131.25 131.25 " fill-opacity="1" fill-rule="nonzero"/></g></g><g clip-path="url(#3889753cc9)"><g clip-path="url(#1df34c84ef)"><g clip-path="url(#ca93068b1b)"><g clip-path="url(#7056247331)"><path fill="#000000" d="M 191.816406 198.558594 C 191.074219 199.207031 190.335938 199.96875 189.492188 200.570312 C 187.296875 202.136719 185.089844 203.695312 182.816406 205.144531 C 178.621094 207.8125 174.273438 207.984375 170.042969 205.378906 C 165.882812 202.816406 164 198.925781 164.402344 194.003906 C 164.695312 190.375 166.375 187.460938 169.304688 185.34375 C 171.605469 183.679688 173.941406 182.070312 176.328125 180.539062 C 183.398438 175.992188 192.914062 180.214844 194.386719 188.496094 C 194.523438 189.273438 194.324219 189.664062 193.570312 189.773438 C 193.027344 189.855469 192.480469 189.984375 191.9375 189.988281 C 190.257812 189.996094 190.253906 189.972656 189.761719 188.425781 C 188.269531 183.738281 182.816406 181.703125 178.695312 184.347656 C 176.359375 185.847656 174.0625 187.425781 171.8125 189.058594 C 168.53125 191.4375 167.796875 196.082031 170.089844 199.421875 C 172.382812 202.761719 176.839844 203.6875 180.230469 201.488281 C 182.164062 200.230469 184.042969 198.886719 185.957031 197.597656 C 186.1875 197.445312 186.523438 197.296875 186.765625 197.347656 C 188.421875 197.710938 190.066406 198.132812 191.816406 198.558594 Z M 187.78125 177.734375 C 188.046875 177.792969 188.417969 177.648438 188.667969 177.480469 C 190.539062 176.230469 192.375 174.921875 194.253906 173.683594 C 197.742188 171.382812 202.28125 172.320312 204.570312 175.78125 C 206.828125 179.191406 205.980469 183.804688 202.617188 186.175781 C 200.4375 187.714844 198.238281 189.230469 196.007812 190.695312 C 191.890625 193.410156 186.371094 191.421875 184.847656 186.714844 C 184.335938 185.128906 184.304688 185.078125 182.628906 185.109375 C 182.03125 185.121094 181.433594 185.277344 180.835938 185.382812 C 180.242188 185.492188 180.082031 185.808594 180.1875 186.441406 C 181.605469 194.9375 191.359375 199.214844 198.488281 194.4375 C 200.707031 192.953125 202.914062 191.449219 205.097656 189.914062 C 208.3125 187.65625 210.070312 184.496094 210.25 180.59375 C 210.46875 175.789062 208.464844 171.984375 204.34375 169.578125 C 200.191406 167.152344 195.929688 167.328125 191.847656 169.917969 C 189.570312 171.363281 187.363281 172.921875 185.167969 174.484375 C 184.300781 175.101562 183.542969 175.878906 182.777344 176.546875 C 184.519531 176.96875 186.144531 177.382812 187.78125 177.734375 Z M 187.78125 177.734375 " fill-opacity="1" fill-rule="nonzero"/></g></g></g></g></svg>